<svg xmlns="http://www.w3.org/2000/svg" viewBox="0 0 512 512" width="512" height="512"><path d="M0 0h512v512H0z" fill="#000"/><path fill="#fff" d="M36 79 c-5 0 -10.04 0.98 -12.85 2.22 c-1.3 0.58 -1.93 1.13 -2.15 1.35 v46.83 c0.22 0.2 0.85 0.8 2.15 1.4 C25.96 132 31 133 36 133 s10.04 -1 12.85 -2.2 c1.3 -0.6 1.93 -1.2 2.15 -1.4 V121 H101 V488 l55 -65.2 l64 72 l64 -72 l55 65.2 V121 H366.1 l1.9 0.9 C384 129.9 408.3 142 430.8 156.3 c17.6 11.2 34.2 23.4 45.2 37.3 c3.5 -6.9 6.8 -16.1 9.2 -27.1 c3.8 -17.7 5.8 -39.1 5.8 -60.6 c0 -21.45 -2 -42.93 -5.8 -60.6 c-2.4 -11 -5.7 -20.18 -9.2 -27.12 c-11 13.93 -27.6 26.14 -45.2 37.31 C408.3 69.93 384 82.05 368 90.1 l-1.9 0.9 H48 V82.57 c-0.22 -0.22 -0.85 -0.77 -2.15 -1.35 C46.04 79.98 41 79 36 79 Z M36 79 c-5 0 -10.04 0.98 -12.85 2.22 c-1.3 0.58 -1.93 1.13 -2.15 1.35 v46.83 c0.22 0.2 0.85 0.8 2.15 1.4 C25.96 132 31 133 36 133 s10.04 -1 12.85 -2.2 c1.3 -0.6 1.93 -1.2 2.15 -1.4 V121 H366.1 l1.9 0.9 C384 129.9 408.3 142 430.8 156.3 c17.6 11.2 34.2 23.4 45.2 37.3 c3.5 -6.9 6.8 -16.1 9.2 -27.1 c3.8 -17.7 5.8 -39.1 5.8 -60.6 c0 -21.45 -2 -42.93 -5.8 -60.6 c-2.4 -11 -5.7 -20.18 -9.2 -27.12 c-11 13.93 -27.6 26.14 -45.2 37.31 C408.3 69.93 384 82.05 368 90.1 l-1.9 0.9 H48 V82.57 c-0.22 -0.22 -0.85 -0.77 -2.15 -1.35 C46.04 79.98 41 79 36 79 Z M115 91 H133 V121 H115 Z M163 91 H181 V121 H163 Z M259 91 H277 V121 H259 Z M307 91 H325 V121 H307 Z M101 121 H339 V488 l-55 -65.2 l-64 72 l-64 -72 l-55 65.2 Z m66.2 45.4c10 19.2 27.3 18.1 44.2 18.1l36.7 1.4l5.3 16.7l52.4 6.9l2.4 34.2c-19 5.5-56.9 4.2-57 12.5c-.1 13.8 24.7 10.7 53.1 3.5l-16.4 37.2l-41.8 3c2.6 31.4-.8 52.6-24.2 75.1L207 355.4c-8.6 15.4-20.4 26.4-39 28.2c7.2-17.7 13-31.8 6.6-51.8c-9.2 8.9-23.9 12.6-44.1 11.2c21.5-33.7 32.9-68.8 42.3-103.3L157 226c-4.5-16-.9-29.8 10.2-41.6"/></svg>
